<svg xmlns="http://www.w3.org/2000/svg" version="1.1" xmlns:xlink="http://www.w3.org/1999/xlink" xmlns:svgjs="http://svgjs.dev/svgjs" viewBox="0 0 800 800"><defs><linearGradient x1="50%" y1="0%" x2="50%" y2="100%" id="ffflurry-grad" gradientTransform="rotate(270)"><stop stop-color="hsl(0, 0%, 0%)" stop-opacity="1" offset="0%"></stop><stop stop-color="hsl(230, 55%, 50%)" stop-opacity="1" offset="45%"></stop><stop stop-color="hsl(230, 55%, 70%)" stop-opacity="1" offset="100%"></stop></linearGradient></defs><rect width="100%" height="100%" fill="hsl(0, 0%, 0%)"></rect><g fill="url(#ffflurry-grad)"><rect width="487" height="3" x="369.5" y="186.5" rx="1.5" transform="rotate(45, 613, 188)" opacity="0.68"></rect><rect width="274" height="3" x="470" y="675.5" rx="1.5" transform="rotate(45, 607, 677)" opacity="0.95"></rect><rect width="203" height="3" x="655.5" y="454.5" rx="1.5" transform="rotate(45, 757, 456)" opacity="0.95"></rect><rect width="76" height="3" x="561" y="352.5" rx="1.5" transform="rotate(45, 599, 354)" opacity="0.81"></rect><rect width="294" height="3" x="62" y="374.5" rx="1.5" transform="rotate(45, 209, 376)" opacity="0.22"></rect><rect width="237" height="3" x="510.5" y="62.5" rx="1.5" transform="rotate(45, 629, 64)" opacity="0.34"></rect><rect width="257" height="3" x="37.5" y="166.5" rx="1.5" transform="rotate(45, 166, 168)" opacity="0.88"></rect><rect width="489" height="3" x="507.5" y="694.5" rx="1.5" transform="rotate(45, 752, 696)" opacity="0.44"></rect><rect width="234" height="3" x="-38" y="241.5" rx="1.5" transform="rotate(45, 79, 243)" opacity="0.68"></rect><rect width="104" height="3" x="597" y="582.5" rx="1.5" transform="rotate(45, 649, 584)" opacity="0.33"></rect><rect width="311" height="3" x="205.5" y="653.5" rx="1.5" transform="rotate(45, 361, 655)" opacity="0.81"></rect><rect width="351" height="3" x="106.5" y="417.5" rx="1.5" transform="rotate(45, 282, 419)" opacity="0.10"></rect><rect width="98" height="3" x="484" y="560.5" rx="1.5" transform="rotate(45, 533, 562)" opacity="0.82"></rect><rect width="348" height="3" x="-147" y="48.5" rx="1.5" transform="rotate(45, 27, 50)" opacity="0.30"></rect><rect width="350" height="3" x="80" y="673.5" rx="1.5" transform="rotate(45, 255, 675)" opacity="0.38"></rect><rect width="147" height="3" x="113.5" y="32.5" rx="1.5" transform="rotate(45, 187, 34)" opacity="0.49"></rect><rect width="132" height="3" x="180" y="467.5" rx="1.5" transform="rotate(45, 246, 469)" opacity="0.34"></rect><rect width="354" height="3" x="270" y="458.5" rx="1.5" transform="rotate(45, 447, 460)" opacity="0.32"></rect><rect width="286" height="3" x="10" y="488.5" rx="1.5" transform="rotate(45, 153, 490)" opacity="0.88"></rect><rect width="363" height="3" x="310.5" y="654.5" rx="1.5" transform="rotate(45, 492, 656)" opacity="1.00"></rect><rect width="574" height="3" x="286" y="468.5" rx="1.5" transform="rotate(45, 573, 470)" opacity="0.35"></rect><rect width="530" height="3" x="-4" y="251.5" rx="1.5" transform="rotate(45, 261, 253)" opacity="0.42"></rect><rect width="104" height="3" x="218" y="57.5" rx="1.5" transform="rotate(45, 270, 59)" opacity="0.66"></rect><rect width="268" height="3" x="281" y="390.5" rx="1.5" transform="rotate(45, 415, 392)" opacity="0.78"></rect><rect width="491" height="3" x="-74.5" y="237.5" rx="1.5" transform="rotate(45, 171, 239)" opacity="0.37"></rect><rect width="494" height="3" x="173" y="555.5" rx="1.5" transform="rotate(45, 420, 557)" opacity="0.23"></rect><rect width="570" height="3" x="-236" y="749.5" rx="1.5" transform="rotate(45, 49, 751)" opacity="0.75"></rect><rect width="137" height="3" x="209.5" y="353.5" rx="1.5" transform="rotate(45, 278, 355)" opacity="1.00"></rect><rect width="485" height="3" x="-152.5" y="51.5" rx="1.5" transform="rotate(45, 90, 53)" opacity="0.43"></rect><rect width="196" height="3" x="48" y="101.5" rx="1.5" transform="rotate(45, 146, 103)" opacity="0.33"></rect><rect width="76" height="3" x="360" y="324.5" rx="1.5" transform="rotate(45, 398, 326)" opacity="0.76"></rect><rect width="511" height="3" x="507.5" y="350.5" rx="1.5" transform="rotate(45, 763, 352)" opacity="0.73"></rect><rect width="146" height="3" x="250" y="305.5" rx="1.5" transform="rotate(45, 323, 307)" opacity="0.58"></rect><rect width="375" height="3" x="-86.5" y="655.5" rx="1.5" transform="rotate(45, 101, 657)" opacity="0.31"></rect><rect width="338" height="3" x="87" y="108.5" rx="1.5" transform="rotate(45, 256, 110)" opacity="0.26"></rect><rect width="464" height="3" x="436" y="756.5" rx="1.5" transform="rotate(45, 668, 758)" opacity="0.79"></rect><rect width="457" height="3" x="36.5" y="759.5" rx="1.5" transform="rotate(45, 265, 761)" opacity="0.59"></rect><rect width="350" height="3" x="-149" y="503.5" rx="1.5" transform="rotate(45, 26, 505)" opacity="0.77"></rect><rect width="295" height="3" x="189.5" y="486.5" rx="1.5" transform="rotate(45, 337, 488)" opacity="0.89"></rect><rect width="401" height="3" x="-162.5" y="588.5" rx="1.5" transform="rotate(45, 38, 590)" opacity="0.37"></rect><rect width="140" height="3" x="229" y="21.5" rx="1.5" transform="rotate(45, 299, 23)" opacity="0.90"></rect><rect width="140" height="3" x="-24" y="161.5" rx="1.5" transform="rotate(45, 46, 163)" opacity="0.21"></rect><rect width="253" height="3" x="331.5" y="279.5" rx="1.5" transform="rotate(45, 458, 281)" opacity="0.28"></rect><rect width="347" height="3" x="-15.5" y="307.5" rx="1.5" transform="rotate(45, 158, 309)" opacity="0.43"></rect><rect width="593" height="3" x="207.5" y="368.5" rx="1.5" transform="rotate(45, 504, 370)" opacity="0.43"></rect><rect width="306" height="3" x="278" y="123.5" rx="1.5" transform="rotate(45, 431, 125)" opacity="0.93"></rect><rect width="53" height="3" x="495.5" y="754.5" rx="1.5" transform="rotate(45, 522, 756)" opacity="0.96"></rect><rect width="89" height="3" x="300.5" y="391.5" rx="1.5" transform="rotate(45, 345, 393)" opacity="0.66"></rect><rect width="321" height="3" x="583.5" y="42.5" rx="1.5" transform="rotate(45, 744, 44)" opacity="0.65"></rect><rect width="143" height="3" x="160.5" y="312.5" rx="1.5" transform="rotate(45, 232, 314)" opacity="0.53"></rect><rect width="210" height="3" x="238" y="135.5" rx="1.5" transform="rotate(45, 343, 137)" opacity="0.62"></rect><rect width="43" height="3" x="364.5" y="234.5" rx="1.5" transform="rotate(45, 386, 236)" opacity="0.07"></rect><rect width="419" height="3" x="-77.5" y="387.5" rx="1.5" transform="rotate(45, 132, 389)" opacity="0.40"></rect><rect width="500" height="3" x="-217" y="670.5" rx="1.5" transform="rotate(45, 33, 672)" opacity="0.22"></rect><rect width="556" height="3" x="-109" y="694.5" rx="1.5" transform="rotate(45, 169, 696)" opacity="0.84"></rect><rect width="111" height="3" x="674.5" y="136.5" rx="1.5" transform="rotate(45, 730, 138)" opacity="0.80"></rect><rect width="523" height="3" x="38.5" y="577.5" rx="1.5" transform="rotate(45, 300, 579)" opacity="0.92"></rect><rect width="196" height="3" x="136" y="519.5" rx="1.5" transform="rotate(45, 234, 521)" opacity="0.76"></rect><rect width="461" height="3" x="-27.5" y="589.5" rx="1.5" transform="rotate(45, 203, 591)" opacity="0.27"></rect><rect width="283" height="3" x="603.5" y="231.5" rx="1.5" transform="rotate(45, 745, 233)" opacity="0.20"></rect><rect width="260" height="3" x="421" y="266.5" rx="1.5" transform="rotate(45, 551, 268)" opacity="0.34"></rect><rect width="320" height="3" x="359" y="58.5" rx="1.5" transform="rotate(45, 519, 60)" opacity="0.18"></rect><rect width="445" height="3" x="95.5" y="206.5" rx="1.5" transform="rotate(45, 318, 208)" opacity="0.91"></rect><rect width="414" height="3" x="-123" y="483.5" rx="1.5" transform="rotate(45, 84, 485)" opacity="0.62"></rect><rect width="95" height="3" x="61.5" y="551.5" rx="1.5" transform="rotate(45, 109, 553)" opacity="0.91"></rect><rect width="171" height="3" x="312.5" y="744.5" rx="1.5" transform="rotate(45, 398, 746)" opacity="0.41"></rect><rect width="398" height="3" x="45" y="174.5" rx="1.5" transform="rotate(45, 244, 176)" opacity="0.36"></rect><rect width="675" height="3" x="333.5" y="428.5" rx="1.5" transform="rotate(45, 671, 430)" opacity="0.67"></rect><rect width="430" height="3" x="-78" y="606.5" rx="1.5" transform="rotate(45, 137, 608)" opacity="0.68"></rect><rect width="627" height="3" x="426.5" y="551.5" rx="1.5" transform="rotate(45, 740, 553)" opacity="0.83"></rect><rect width="118" height="3" x="-11" y="411.5" rx="1.5" transform="rotate(45, 48, 413)" opacity="0.09"></rect><rect width="125" height="3" x="-16.5" y="318.5" rx="1.5" transform="rotate(45, 46, 320)" opacity="0.61"></rect><rect width="471" height="3" x="257.5" y="183.5" rx="1.5" transform="rotate(45, 493, 185)" opacity="0.25"></rect><rect width="480" height="3" x="152" y="41.5" rx="1.5" transform="rotate(45, 392, 43)" opacity="0.14"></rect><rect width="248" height="3" x="75" y="431.5" rx="1.5" transform="rotate(45, 199, 433)" opacity="0.73"></rect><rect width="138" height="3" x="70" y="764.5" rx="1.5" transform="rotate(45, 139, 766)" opacity="0.61"></rect><rect width="634" height="3" x="365" y="303.5" rx="1.5" transform="rotate(45, 682, 305)" opacity="0.58"></rect></g></svg>