<svg xmlns="http://www.w3.org/2000/svg" version="1.1" xmlns:xlink="http://www.w3.org/1999/xlink" xmlns:svgjs="http://svgjs.dev/svgjs" viewBox="0 0 1422 800"><circle r="8.5" cx="558" cy="286" fill="hsl(229, 75%, 75%)" opacity="0.97"></circle><circle r="8.5" cx="471" cy="634" fill="hsl(243, 75%, 75%)" opacity="0.77"></circle><circle r="17" cx="282" cy="715" fill="hsl(280, 75%, 75%)" opacity="0.43"></circle><circle r="5" cx="1223" cy="63" fill="hsl(240, 75%, 75%)" opacity="0.56"></circle><circle r="17.5" cx="346" cy="211" fill="hsl(270, 75%, 75%)" opacity="0.54"></circle><circle r="6.5" cx="1010" cy="16" fill="hsl(238, 75%, 75%)" opacity="0.59"></circle><circle r="13" cx="1146" cy="602" fill="hsl(261, 75%, 75%)" opacity="0.48"></circle><circle r="8" cx="415" cy="14" fill="hsl(272, 75%, 75%)" opacity="0.73"></circle><circle r="6" cx="1359" cy="503" fill="hsl(225, 75%, 75%)" opacity="0.27"></circle><circle r="15" cx="1024" cy="345" fill="hsl(259, 75%, 75%)" opacity="0.83"></circle><circle r="15" cx="328" cy="399" fill="hsl(274, 75%, 75%)" opacity="0.48"></circle><circle r="18" cx="144" cy="442" fill="hsl(281, 75%, 75%)" opacity="0.97"></circle><circle r="10" cx="1323" cy="404" fill="hsl(234, 75%, 75%)" opacity="0.89"></circle><circle r="9.5" cx="527" cy="54" fill="hsl(245, 75%, 75%)" opacity="0.63"></circle><circle r="15.5" cx="385" cy="149" fill="hsl(268, 75%, 75%)" opacity="0.48"></circle><circle r="12" cx="920" cy="201" fill="hsl(244, 75%, 75%)" opacity="0.19"></circle><circle r="12.5" cx="160" cy="285" fill="hsl(283, 75%, 75%)" opacity="0.50"></circle><circle r="16.5" cx="274" cy="168" fill="hsl(283, 75%, 75%)" opacity="0.53"></circle><circle r="6.5" cx="1336" cy="465" fill="hsl(229, 75%, 75%)" opacity="0.27"></circle><circle r="10.5" cx="466" cy="236" fill="hsl(247, 75%, 75%)" opacity="0.68"></circle><circle r="12" cx="325" cy="691" fill="hsl(274, 75%, 75%)" opacity="0.10"></circle><circle r="12" cx="374" cy="437" fill="hsl(266, 75%, 75%)" opacity="0.62"></circle><circle r="11.5" cx="378" cy="259" fill="hsl(261, 75%, 75%)" opacity="0.69"></circle><circle r="5" cx="9" cy="90" fill="hsl(261, 75%, 75%)" opacity="0.13"></circle><circle r="6" cx="838" cy="146" fill="hsl(228, 75%, 75%)" opacity="0.34"></circle><circle r="11" cx="629" cy="606" fill="hsl(224, 75%, 75%)" opacity="0.55"></circle><circle r="10" cx="808" cy="306" fill="hsl(229, 75%, 75%)" opacity="0.54"></circle><circle r="17" cx="364" cy="35" fill="hsl(281, 75%, 75%)" opacity="0.54"></circle><circle r="20.5" cx="314" cy="278" fill="hsl(274, 75%, 75%)" opacity="0.51"></circle><circle r="7" cx="762" cy="503" fill="hsl(225, 75%, 75%)" opacity="0.66"></circle><circle r="15" cx="1179" cy="499" fill="hsl(257, 75%, 75%)" opacity="0.67"></circle><circle r="11" cx="948" cy="603" fill="hsl(248, 75%, 75%)" opacity="0.95"></circle><circle r="8.5" cx="644" cy="427" fill="hsl(224, 75%, 75%)" opacity="0.45"></circle><circle r="13" cx="1021" cy="583" fill="hsl(257, 75%, 75%)" opacity="0.21"></circle><circle r="10" cx="1293" cy="461" fill="hsl(238, 75%, 75%)" opacity="0.36"></circle><circle r="7.5" cx="566" cy="775" fill="hsl(229, 75%, 75%)" opacity="0.28"></circle><circle r="8.5" cx="516" cy="778" fill="hsl(235, 75%, 75%)" opacity="0.86"></circle><circle r="7.5" cx="1390" cy="403" fill="hsl(221, 75%, 75%)" opacity="0.82"></circle><circle r="9" cx="1202" cy="362" fill="hsl(254, 75%, 75%)" opacity="0.10"></circle><circle r="21.5" cx="44" cy="311" fill="hsl(265, 75%, 75%)" opacity="0.34"></circle><circle r="12" cx="22" cy="600" fill="hsl(260, 75%, 75%)" opacity="0.92"></circle><circle r="19.5" cx="33" cy="753" fill="hsl(265, 75%, 75%)" opacity="0.51"></circle><circle r="16" cx="1285" cy="308" fill="hsl(243, 75%, 75%)" opacity="0.62"></circle><circle r="11.5" cx="1035" cy="114" fill="hsl(248, 75%, 75%)" opacity="0.26"></circle><circle r="6.5" cx="1401" cy="348" fill="hsl(218, 75%, 75%)" opacity="0.45"></circle><circle r="17.5" cx="82" cy="695" fill="hsl(272, 75%, 75%)" opacity="0.78"></circle><circle r="10" cx="680" cy="383" fill="hsl(223, 75%, 75%)" opacity="0.77"></circle><circle r="8" cx="600" cy="314" fill="hsl(227, 75%, 75%)" opacity="0.33"></circle><circle r="13" cx="976" cy="430" fill="hsl(251, 75%, 75%)" opacity="0.60"></circle><circle r="9.5" cx="747" cy="436" fill="hsl(224, 75%, 75%)" opacity="0.80"></circle><circle r="17" cx="425" cy="452" fill="hsl(252, 75%, 75%)" opacity="0.97"></circle><circle r="13.5" cx="1255" cy="694" fill="hsl(247, 75%, 75%)" opacity="0.20"></circle><circle r="17.5" cx="1223" cy="239" fill="hsl(251, 75%, 75%)" opacity="0.89"></circle><circle r="7" cx="721" cy="23" fill="hsl(224, 75%, 75%)" opacity="0.41"></circle><circle r="14.5" cx="898" cy="300" fill="hsl(241, 75%, 75%)" opacity="0.25"></circle><circle r="8.5" cx="490" cy="594" fill="hsl(239, 75%, 75%)" opacity="0.96"></circle><circle r="8.5" cx="1346" cy="40" fill="hsl(223, 75%, 75%)" opacity="0.83"></circle><circle r="14.5" cx="1141" cy="430" fill="hsl(261, 75%, 75%)" opacity="0.32"></circle><circle r="8" cx="928" cy="385" fill="hsl(244, 75%, 75%)" opacity="0.68"></circle><circle r="12.5" cx="1029" cy="400" fill="hsl(259, 75%, 75%)" opacity="0.81"></circle><circle r="13" cx="1141" cy="334" fill="hsl(261, 75%, 75%)" opacity="0.82"></circle><circle r="10.5" cx="556" cy="348" fill="hsl(229, 75%, 75%)" opacity="0.27"></circle><circle r="14" cx="129" cy="61" fill="hsl(285, 75%, 75%)" opacity="0.83"></circle><circle r="16.5" cx="266" cy="447" fill="hsl(282, 75%, 75%)" opacity="0.48"></circle><circle r="8.5" cx="1343" cy="704" fill="hsl(229, 75%, 75%)" opacity="0.31"></circle><circle r="10" cx="228" cy="268" fill="hsl(283, 75%, 75%)" opacity="0.35"></circle><circle r="14.5" cx="1184" cy="112" fill="hsl(248, 75%, 75%)" opacity="0.39"></circle><circle r="8.5" cx="1271" cy="123" fill="hsl(237, 75%, 75%)" opacity="0.14"></circle><circle r="11.5" cx="327" cy="494" fill="hsl(274, 75%, 75%)" opacity="0.72"></circle><circle r="7" cx="417" cy="624" fill="hsl(257, 75%, 75%)" opacity="0.47"></circle><circle r="7" cx="940" cy="785" fill="hsl(248, 75%, 75%)" opacity="0.22"></circle><circle r="9" cx="971" cy="492" fill="hsl(251, 75%, 75%)" opacity="0.96"></circle><circle r="5" cx="861" cy="46" fill="hsl(226, 75%, 75%)" opacity="0.31"></circle><circle r="8" cx="861" cy="116" fill="hsl(229, 75%, 75%)" opacity="0.21"></circle><circle r="9" cx="1393" cy="84" fill="hsl(218, 75%, 75%)" opacity="0.21"></circle><circle r="13" cx="387" cy="774" fill="hsl(261, 75%, 75%)" opacity="0.78"></circle><circle r="12" cx="563" cy="570" fill="hsl(229, 75%, 75%)" opacity="0.63"></circle><circle r="7.5" cx="893" cy="237" fill="hsl(241, 75%, 75%)" opacity="0.13"></circle><circle r="10.5" cx="1066" cy="168" fill="hsl(257, 75%, 75%)" opacity="0.68"></circle><circle r="9.5" cx="1376" cy="292" fill="hsl(225, 75%, 75%)" opacity="0.98"></circle><circle r="12.5" cx="301" cy="109" fill="hsl(289, 75%, 75%)" opacity="0.15"></circle><circle r="6.5" cx="733" cy="657" fill="hsl(223, 75%, 75%)" opacity="0.37"></circle><circle r="13" cx="484" cy="82" fill="hsl(253, 75%, 75%)" opacity="0.89"></circle><circle r="23" cx="265" cy="646" fill="hsl(282, 75%, 75%)" opacity="0.91"></circle><circle r="10.5" cx="1032" cy="453" fill="hsl(259, 75%, 75%)" opacity="0.77"></circle><circle r="14.5" cx="238" cy="337" fill="hsl(283, 75%, 75%)" opacity="0.41"></circle><circle r="15" cx="247" cy="114" fill="hsl(290, 75%, 75%)" opacity="0.39"></circle><circle r="14.5" cx="419" cy="206" fill="hsl(257, 75%, 75%)" opacity="0.12"></circle><circle r="11.5" cx="813" cy="711" fill="hsl(229, 75%, 75%)" opacity="0.76"></circle><circle r="12" cx="926" cy="139" fill="hsl(239, 75%, 75%)" opacity="0.41"></circle><circle r="17" cx="179" cy="764" fill="hsl(284, 75%, 75%)" opacity="0.39"></circle><circle r="8.5" cx="59" cy="80" fill="hsl(271, 75%, 75%)" opacity="0.91"></circle><circle r="10" cx="705" cy="711" fill="hsl(223, 75%, 75%)" opacity="0.46"></circle><circle r="9.5" cx="482" cy="547" fill="hsl(243, 75%, 75%)" opacity="0.81"></circle><circle r="15.5" cx="115" cy="194" fill="hsl(279, 75%, 75%)" opacity="0.39"></circle><circle r="16.5" cx="233" cy="391" fill="hsl(283, 75%, 75%)" opacity="0.72"></circle><circle r="13" cx="59" cy="162" fill="hsl(269, 75%, 75%)" opacity="0.60"></circle><circle r="14" cx="1107" cy="125" fill="hsl(251, 75%, 75%)" opacity="0.55"></circle><circle r="9.5" cx="1075" cy="376" fill="hsl(262, 75%, 75%)" opacity="0.37"></circle><circle r="9" cx="101" cy="29" fill="hsl(281, 75%, 75%)" opacity="0.47"></circle><circle r="11" cx="1032" cy="62" fill="hsl(241, 75%, 75%)" opacity="0.13"></circle><circle r="13" cx="1153" cy="272" fill="hsl(261, 75%, 75%)" opacity="0.77"></circle><circle r="11" cx="683" cy="492" fill="hsl(223, 75%, 75%)" opacity="0.99"></circle><circle r="11.5" cx="1151" cy="758" fill="hsl(261, 75%, 75%)" opacity="0.48"></circle><circle r="8.5" cx="913" cy="432" fill="hsl(244, 75%, 75%)" opacity="0.11"></circle><circle r="6.5" cx="439" cy="652" fill="hsl(252, 75%, 75%)" opacity="0.66"></circle><circle r="17.5" cx="206" cy="223" fill="hsl(284, 75%, 75%)" opacity="0.44"></circle><circle r="14" cx="1115" cy="489" fill="hsl(262, 75%, 75%)" opacity="0.28"></circle><circle r="10" cx="515" cy="687" fill="hsl(235, 75%, 75%)" opacity="0.79"></circle><circle r="10" cx="690" cy="287" fill="hsl(223, 75%, 75%)" opacity="0.36"></circle><circle r="8.5" cx="1348" cy="777" fill="hsl(229, 75%, 75%)" opacity="0.83"></circle><circle r="7.5" cx="911" cy="756" fill="hsl(244, 75%, 75%)" opacity="0.33"></circle><circle r="15" cx="55" cy="642" fill="hsl(269, 75%, 75%)" opacity="0.44"></circle><circle r="12.5" cx="986" cy="224" fill="hsl(254, 75%, 75%)" opacity="0.48"></circle><circle r="11" cx="1113" cy="371" fill="hsl(262, 75%, 75%)" opacity="0.94"></circle><circle r="19.5" cx="210" cy="162" fill="hsl(287, 75%, 75%)" opacity="0.35"></circle><circle r="18" cx="234" cy="746" fill="hsl(283, 75%, 75%)" opacity="0.75"></circle><circle r="19.5" cx="112" cy="325" fill="hsl(279, 75%, 75%)" opacity="0.35"></circle><circle r="10" cx="1094" cy="710" fill="hsl(262, 75%, 75%)" opacity="0.10"></circle><circle r="14.5" cx="26" cy="417" fill="hsl(265, 75%, 75%)" opacity="0.73"></circle><circle r="10" cx="780" cy="771" fill="hsl(227, 75%, 75%)" opacity="0.58"></circle><circle r="18" cx="34" cy="213" fill="hsl(265, 75%, 75%)" opacity="0.48"></circle><circle r="8.5" cx="470" cy="704" fill="hsl(243, 75%, 75%)" opacity="0.21"></circle><circle r="9.5" cx="690" cy="768" fill="hsl(223, 75%, 75%)" opacity="0.53"></circle><circle r="10" cx="419" cy="56" fill="hsl(271, 75%, 75%)" opacity="0.43"></circle><circle r="9.5" cx="24" cy="18" fill="hsl(266, 75%, 75%)" opacity="0.50"></circle><circle r="7.5" cx="1207" cy="37" fill="hsl(241, 75%, 75%)" opacity="0.17"></circle><circle r="8.5" cx="622" cy="475" fill="hsl(225, 75%, 75%)" opacity="0.99"></circle><circle r="12" cx="1026" cy="500" fill="hsl(259, 75%, 75%)" opacity="0.63"></circle><circle r="21.5" cx="203" cy="616" fill="hsl(284, 75%, 75%)" opacity="0.30"></circle><circle r="10" cx="590" cy="241" fill="hsl(227, 75%, 75%)" opacity="0.20"></circle><circle r="20.5" cx="112" cy="762" fill="hsl(279, 75%, 75%)" opacity="0.48"></circle><circle r="19" cx="203" cy="443" fill="hsl(284, 75%, 75%)" opacity="0.59"></circle><circle r="10.5" cx="919" cy="80" fill="hsl(232, 75%, 75%)" opacity="0.17"></circle><circle r="14" cx="462" cy="764" fill="hsl(247, 75%, 75%)" opacity="0.16"></circle><circle r="8" cx="833" cy="475" fill="hsl(231, 75%, 75%)" opacity="0.50"></circle><circle r="4" cx="838" cy="789" fill="hsl(231, 75%, 75%)" opacity="0.20"></circle><circle r="13" cx="1093" cy="613" fill="hsl(262, 75%, 75%)" opacity="0.11"></circle><circle r="13.5" cx="1295" cy="218" fill="hsl(238, 75%, 75%)" opacity="0.87"></circle><circle r="13" cx="1116" cy="543" fill="hsl(262, 75%, 75%)" opacity="0.90"></circle><circle r="7.5" cx="970" cy="548" fill="hsl(251, 75%, 75%)" opacity="0.38"></circle><circle r="13.5" cx="1189" cy="572" fill="hsl(257, 75%, 75%)" opacity="0.97"></circle><circle r="10.5" cx="1323" cy="145" fill="hsl(230, 75%, 75%)" opacity="0.40"></circle><circle r="11" cx="104" cy="96" fill="hsl(280, 75%, 75%)" opacity="0.83"></circle><circle r="6.5" cx="878" cy="757" fill="hsl(237, 75%, 75%)" opacity="0.33"></circle><circle r="9.5" cx="402" cy="590" fill="hsl(257, 75%, 75%)" opacity="0.73"></circle><circle r="10" cx="197" cy="302" fill="hsl(284, 75%, 75%)" opacity="0.46"></circle><circle r="12" cx="1012" cy="775" fill="hsl(257, 75%, 75%)" opacity="0.62"></circle><circle r="8" cx="929" cy="22" fill="hsl(231, 75%, 75%)" opacity="0.57"></circle><circle r="9.5" cx="790" cy="162" fill="hsl(226, 75%, 75%)" opacity="0.66"></circle><circle r="11" cx="1303" cy="658" fill="hsl(238, 75%, 75%)" opacity="0.47"></circle><circle r="13" cx="957" cy="272" fill="hsl(251, 75%, 75%)" opacity="0.61"></circle><circle r="7" cx="738" cy="536" fill="hsl(224, 75%, 75%)" opacity="0.24"></circle><circle r="14.5" cx="1237" cy="478" fill="hsl(251, 75%, 75%)" opacity="0.59"></circle><circle r="5.5" cx="773" cy="16" fill="hsl(225, 75%, 75%)" opacity="1.00"></circle><circle r="13.5" cx="957" cy="346" fill="hsl(251, 75%, 75%)" opacity="0.32"></circle><circle r="11.5" cx="1198" cy="769" fill="hsl(257, 75%, 75%)" opacity="0.72"></circle><circle r="22.5" cx="124" cy="580" fill="hsl(279, 75%, 75%)" opacity="0.31"></circle><circle r="12.5" cx="361" cy="667" fill="hsl(266, 75%, 75%)" opacity="0.66"></circle><circle r="13.5" cx="38" cy="499" fill="hsl(265, 75%, 75%)" opacity="0.96"></circle><circle r="7" cx="1394" cy="23" fill="hsl(217, 75%, 75%)" opacity="0.91"></circle><circle r="8.5" cx="1356" cy="188" fill="hsl(225, 75%, 75%)" opacity="0.90"></circle><circle r="5.5" cx="13" cy="64" fill="hsl(261, 75%, 75%)" opacity="0.28"></circle><circle r="6" cx="1271" cy="588" fill="hsl(243, 75%, 75%)" opacity="0.82"></circle><circle r="17" cx="80" cy="437" fill="hsl(272, 75%, 75%)" opacity="1.00"></circle><circle r="16" cx="340" cy="543" fill="hsl(270, 75%, 75%)" opacity="0.84"></circle><circle r="7" cx="700" cy="634" fill="hsl(223, 75%, 75%)" opacity="0.89"></circle><circle r="14" cx="1253" cy="763" fill="hsl(247, 75%, 75%)" opacity="0.22"></circle><circle r="14" cx="1212" cy="422" fill="hsl(254, 75%, 75%)" opacity="0.62"></circle><circle r="18.5" cx="339" cy="611" fill="hsl(270, 75%, 75%)" opacity="0.90"></circle><circle r="6.5" cx="530" cy="739" fill="hsl(235, 75%, 75%)" opacity="0.45"></circle><circle r="21" cx="202" cy="525" fill="hsl(284, 75%, 75%)" opacity="0.42"></circle><circle r="9.5" cx="1055" cy="719" fill="hsl(261, 75%, 75%)" opacity="0.15"></circle><circle r="9.5" cx="927" cy="554" fill="hsl(244, 75%, 75%)" opacity="0.36"></circle><circle r="8" cx="1275" cy="524" fill="hsl(243, 75%, 75%)" opacity="0.63"></circle><circle r="12.5" cx="874" cy="570" fill="hsl(237, 75%, 75%)" opacity="0.73"></circle><circle r="14" cx="403" cy="97" fill="hsl(268, 75%, 75%)" opacity="0.21"></circle><circle r="10.5" cx="973" cy="53" fill="hsl(235, 75%, 75%)" opacity="0.72"></circle><circle r="8.5" cx="545" cy="216" fill="hsl(232, 75%, 75%)" opacity="0.62"></circle><circle r="8.5" cx="1349" cy="247" fill="hsl(229, 75%, 75%)" opacity="0.56"></circle><circle r="10.5" cx="619" cy="764" fill="hsl(225, 75%, 75%)" opacity="0.68"></circle><circle r="11.5" cx="421" cy="726" fill="hsl(257, 75%, 75%)" opacity="0.46"></circle><circle r="7" cx="1237" cy="91" fill="hsl(242, 75%, 75%)" opacity="0.70"></circle><circle r="14" cx="1183" cy="692" fill="hsl(257, 75%, 75%)" opacity="0.88"></circle><circle r="20.5" cx="266" cy="550" fill="hsl(282, 75%, 75%)" opacity="0.46"></circle><circle r="11" cx="799" cy="228" fill="hsl(227, 75%, 75%)" opacity="0.41"></circle><circle r="4.5" cx="804" cy="456" fill="hsl(229, 75%, 75%)" opacity="0.31"></circle><circle r="12.5" cx="184" cy="341" fill="hsl(284, 75%, 75%)" opacity="0.33"></circle><circle r="6" cx="540" cy="164" fill="hsl(233, 75%, 75%)" opacity="0.66"></circle><circle r="15.5" cx="1024" cy="280" fill="hsl(259, 75%, 75%)" opacity="0.64"></circle><circle r="7.5" cx="1399" cy="743" fill="hsl(221, 75%, 75%)" opacity="0.73"></circle><circle r="7" cx="548" cy="99" fill="hsl(238, 75%, 75%)" opacity="0.57"></circle><circle r="11.5" cx="499" cy="274" fill="hsl(239, 75%, 75%)" opacity="0.38"></circle><circle r="11" cx="631" cy="56" fill="hsl(229, 75%, 75%)" opacity="0.59"></circle><circle r="5.5" cx="1274" cy="15" fill="hsl(232, 75%, 75%)" opacity="0.71"></circle><circle r="8" cx="639" cy="270" fill="hsl(224, 75%, 75%)" opacity="0.40"></circle><circle r="13" cx="1123" cy="68" fill="hsl(247, 75%, 75%)" opacity="0.98"></circle><circle r="9.5" cx="73" cy="51" fill="hsl(276, 75%, 75%)" opacity="0.84"></circle><circle r="9.5" cx="1137" cy="693" fill="hsl(261, 75%, 75%)" opacity="0.16"></circle><circle r="11" cx="497" cy="186" fill="hsl(239, 75%, 75%)" opacity="0.29"></circle><circle r="9" cx="960" cy="747" fill="hsl(251, 75%, 75%)" opacity="0.20"></circle><circle r="9" cx="1300" cy="568" fill="hsl(238, 75%, 75%)" opacity="0.79"></circle><circle r="12" cx="168" cy="106" fill="hsl(290, 75%, 75%)" opacity="0.78"></circle><circle r="12" cx="838" cy="632" fill="hsl(231, 75%, 75%)" opacity="0.99"></circle><circle r="14.5" cx="987" cy="159" fill="hsl(250, 75%, 75%)" opacity="0.33"></circle><circle r="8" cx="676" cy="30" fill="hsl(226, 75%, 75%)" opacity="0.84"></circle><circle r="7.5" cx="1357" cy="570" fill="hsl(225, 75%, 75%)" opacity="0.63"></circle><circle r="14" cx="49" cy="550" fill="hsl(269, 75%, 75%)" opacity="0.81"></circle><circle r="14" cx="315" cy="23" fill="hsl(289, 75%, 75%)" opacity="0.71"></circle><circle r="9.5" cx="750" cy="314" fill="hsl(224, 75%, 75%)" opacity="0.94"></circle><circle r="16.5" cx="316" cy="769" fill="hsl(274, 75%, 75%)" opacity="0.87"></circle><circle r="6" cx="758" cy="590" fill="hsl(225, 75%, 75%)" opacity="0.74"></circle><circle r="14" cx="1081" cy="442" fill="hsl(262, 75%, 75%)" opacity="0.55"></circle><circle r="12" cx="541" cy="633" fill="hsl(232, 75%, 75%)" opacity="0.26"></circle><circle r="7" cx="407" cy="690" fill="hsl(257, 75%, 75%)" opacity="0.12"></circle><circle r="15" cx="329" cy="150" fill="hsl(281, 75%, 75%)" opacity="0.89"></circle><circle r="5.5" cx="770" cy="625" fill="hsl(225, 75%, 75%)" opacity="0.38"></circle><circle r="11.5" cx="1015" cy="718" fill="hsl(257, 75%, 75%)" opacity="0.64"></circle><circle r="6" cx="1337" cy="534" fill="hsl(229, 75%, 75%)" opacity="0.26"></circle><circle r="8" cx="1306" cy="506" fill="hsl(238, 75%, 75%)" opacity="0.75"></circle><circle r="10.5" cx="1109" cy="658" fill="hsl(262, 75%, 75%)" opacity="0.37"></circle><circle r="9.5" cx="1230" cy="595" fill="hsl(251, 75%, 75%)" opacity="0.80"></circle><circle r="9" cx="525" cy="516" fill="hsl(235, 75%, 75%)" opacity="0.83"></circle><circle r="8" cx="71" cy="14" fill="hsl(276, 75%, 75%)" opacity="0.71"></circle><circle r="11.5" cx="96" cy="134" fill="hsl(278, 75%, 75%)" opacity="0.21"></circle><circle r="14.5" cx="483" cy="402" fill="hsl(243, 75%, 75%)" opacity="0.54"></circle><circle r="10.5" cx="751" cy="374" fill="hsl(224, 75%, 75%)" opacity="0.96"></circle><circle r="7" cx="1400" cy="503" fill="hsl(218, 75%, 75%)" opacity="0.20"></circle><circle r="14" cx="563" cy="416" fill="hsl(229, 75%, 75%)" opacity="0.14"></circle><circle r="6.5" cx="1401" cy="585" fill="hsl(218, 75%, 75%)" opacity="0.31"></circle><circle r="6" cx="1402" cy="218" fill="hsl(218, 75%, 75%)" opacity="0.37"></circle><circle r="11" cx="1166" cy="385" fill="hsl(259, 75%, 75%)" opacity="0.98"></circle><circle r="7.5" cx="1321" cy="82" fill="hsl(227, 75%, 75%)" opacity="0.63"></circle><circle r="10" cx="427" cy="274" fill="hsl(252, 75%, 75%)" opacity="0.72"></circle><circle r="6" cx="1277" cy="47" fill="hsl(234, 75%, 75%)" opacity="0.84"></circle><circle r="10.5" cx="1343" cy="351" fill="hsl(229, 75%, 75%)" opacity="0.24"></circle><circle r="10.5" cx="1191" cy="301" fill="hsl(257, 75%, 75%)" opacity="0.71"></circle><circle r="6.5" cx="467" cy="14" fill="hsl(257, 75%, 75%)" opacity="0.63"></circle><circle r="19" cx="1156" cy="181" fill="hsl(259, 75%, 75%)" opacity="0.62"></circle><circle r="14.5" cx="264" cy="24" fill="hsl(295, 75%, 75%)" opacity="0.88"></circle><circle r="11" cx="836" cy="366" fill="hsl(231, 75%, 75%)" opacity="0.16"></circle><circle r="11.5" cx="1268" cy="399" fill="hsl(243, 75%, 75%)" opacity="0.21"></circle><circle r="11.5" cx="1065" cy="554" fill="hsl(261, 75%, 75%)" opacity="0.36"></circle><circle r="8" cx="1365" cy="639" fill="hsl(225, 75%, 75%)" opacity="0.68"></circle><circle r="11" cx="135" cy="17" fill="hsl(289, 75%, 75%)" opacity="0.12"></circle><circle r="10" cx="1239" cy="546" fill="hsl(251, 75%, 75%)" opacity="0.74"></circle><circle r="7" cx="1106" cy="786" fill="hsl(262, 75%, 75%)" opacity="0.50"></circle><circle r="11" cx="927" cy="479" fill="hsl(244, 75%, 75%)" opacity="0.90"></circle><circle r="18.5" cx="296" cy="349" fill="hsl(277, 75%, 75%)" opacity="0.80"></circle><circle r="9.5" cx="1392" cy="143" fill="hsl(219, 75%, 75%)" opacity="0.23"></circle><circle r="5.5" cx="765" cy="50" fill="hsl(223, 75%, 75%)" opacity="0.72"></circle><circle r="5.5" cx="809" cy="34" fill="hsl(224, 75%, 75%)" opacity="0.23"></circle><circle r="8" cx="35" cy="50" fill="hsl(266, 75%, 75%)" opacity="0.67"></circle><circle r="7" cx="1368" cy="447" fill="hsl(225, 75%, 75%)" opacity="0.82"></circle><circle r="14.5" cx="194" cy="23" fill="hsl(294, 75%, 75%)" opacity="0.87"></circle><circle r="9" cx="1264" cy="625" fill="hsl(247, 75%, 75%)" opacity="0.54"></circle><circle r="4.5" cx="779" cy="471" fill="hsl(227, 75%, 75%)" opacity="0.53"></circle><circle r="9.5" cx="1232" cy="329" fill="hsl(251, 75%, 75%)" opacity="0.53"></circle><circle r="11" cx="493" cy="476" fill="hsl(239, 75%, 75%)" opacity="0.39"></circle><circle r="8.5" cx="1076" cy="33" fill="hsl(243, 75%, 75%)" opacity="0.72"></circle><circle r="13" cx="323" cy="75" fill="hsl(287, 75%, 75%)" opacity="0.37"></circle><circle r="15" cx="249" cy="66" fill="hsl(295, 75%, 75%)" opacity="0.91"></circle><circle r="13.5" cx="1054" cy="215" fill="hsl(261, 75%, 75%)" opacity="0.85"></circle><circle r="7.5" cx="773" cy="679" fill="hsl(225, 75%, 75%)" opacity="0.15"></circle><circle r="14" cx="480" cy="334" fill="hsl(243, 75%, 75%)" opacity="0.50"></circle><circle r="10.5" cx="736" cy="244" fill="hsl(224, 75%, 75%)" opacity="0.37"></circle><circle r="15" cx="634" cy="178" fill="hsl(224, 75%, 75%)" opacity="0.51"></circle><circle r="7.5" cx="639" cy="344" fill="hsl(224, 75%, 75%)" opacity="0.26"></circle><circle r="8.5" cx="853" cy="188" fill="hsl(234, 75%, 75%)" opacity="0.67"></circle><circle r="11" cx="948" cy="659" fill="hsl(248, 75%, 75%)" opacity="0.77"></circle><circle r="12" cx="874" cy="501" fill="hsl(237, 75%, 75%)" opacity="0.54"></circle><circle r="7" cx="563" cy="717" fill="hsl(229, 75%, 75%)" opacity="0.19"></circle><circle r="20" cx="125" cy="507" fill="hsl(279, 75%, 75%)" opacity="0.45"></circle><circle r="21" cx="158" cy="670" fill="hsl(283, 75%, 75%)" opacity="0.90"></circle><circle r="8.5" cx="583" cy="56" fill="hsl(234, 75%, 75%)" opacity="0.69"></circle><circle r="8.5" cx="1034" cy="640" fill="hsl(259, 75%, 75%)" opacity="0.94"></circle><circle r="11" cx="1305" cy="735" fill="hsl(238, 75%, 75%)" opacity="0.10"></circle><circle r="12.5" cx="689" cy="114" fill="hsl(223, 75%, 75%)" opacity="0.11"></circle><circle r="7" cx="683" cy="590" fill="hsl(223, 75%, 75%)" opacity="0.58"></circle><circle r="7.5" cx="756" cy="106" fill="hsl(223, 75%, 75%)" opacity="0.57"></circle><circle r="6" cx="848" cy="759" fill="hsl(234, 75%, 75%)" opacity="0.46"></circle><circle r="7.5" cx="569" cy="133" fill="hsl(233, 75%, 75%)" opacity="0.36"></circle><circle r="14.5" cx="158" cy="148" fill="hsl(287, 75%, 75%)" opacity="0.64"></circle><circle r="11.5" cx="805" cy="561" fill="hsl(229, 75%, 75%)" opacity="0.61"></circle><circle r="7.5" cx="1394" cy="675" fill="hsl(221, 75%, 75%)" opacity="0.99"></circle><circle r="4.5" cx="833" cy="13" fill="hsl(226, 75%, 75%)" opacity="0.31"></circle><circle r="6.5" cx="984" cy="525" fill="hsl(254, 75%, 75%)" opacity="0.44"></circle><circle r="10.5" cx="869" cy="409" fill="hsl(237, 75%, 75%)" opacity="0.32"></circle><circle r="12" cx="369" cy="722" fill="hsl(266, 75%, 75%)" opacity="0.23"></circle><circle r="5" cx="1406" cy="447" fill="hsl(218, 75%, 75%)" opacity="0.65"></circle><circle r="4.5" cx="830" cy="57" fill="hsl(225, 75%, 75%)" opacity="0.99"></circle><circle r="9.5" cx="1083" cy="759" fill="hsl(262, 75%, 75%)" opacity="0.43"></circle><circle r="11" cx="1058" cy="666" fill="hsl(261, 75%, 75%)" opacity="0.67"></circle><circle r="10" cx="993" cy="647" fill="hsl(254, 75%, 75%)" opacity="0.50"></circle><circle r="6.5" cx="554" cy="16" fill="hsl(243, 75%, 75%)" opacity="0.48"></circle><circle r="6" cx="694" cy="552" fill="hsl(223, 75%, 75%)" opacity="0.35"></circle><circle r="18" cx="269" cy="226" fill="hsl(280, 75%, 75%)" opacity="0.71"></circle><circle r="6" cx="857" cy="232" fill="hsl(234, 75%, 75%)" opacity="0.47"></circle><circle r="6.5" cx="726" cy="65" fill="hsl(224, 75%, 75%)" opacity="0.17"></circle><circle r="9" cx="45" cy="107" fill="hsl(271, 75%, 75%)" opacity="0.39"></circle><circle r="5.5" cx="450" cy="676" fill="hsl(247, 75%, 75%)" opacity="0.30"></circle><circle r="15" cx="1109" cy="242" fill="hsl(262, 75%, 75%)" opacity="0.46"></circle><circle r="13.5" cx="1212" cy="644" fill="hsl(254, 75%, 75%)" opacity="0.67"></circle><circle r="15.5" cx="390" cy="361" fill="hsl(261, 75%, 75%)" opacity="0.81"></circle><circle r="7" cx="882" cy="21" fill="hsl(228, 75%, 75%)" opacity="0.52"></circle><circle r="9" cx="898" cy="710" fill="hsl(241, 75%, 75%)" opacity="0.28"></circle><circle r="8" cx="500" cy="23" fill="hsl(251, 75%, 75%)" opacity="0.14"></circle><circle r="8.5" cx="454" cy="43" fill="hsl(261, 75%, 75%)" opacity="0.51"></circle><circle r="14.5" cx="1238" cy="167" fill="hsl(248, 75%, 75%)" opacity="0.36"></circle><circle r="16" cx="1082" cy="308" fill="hsl(262, 75%, 75%)" opacity="0.31"></circle><circle r="9" cx="1320" cy="610" fill="hsl(234, 75%, 75%)" opacity="0.66"></circle><circle r="5" cx="849" cy="81" fill="hsl(226, 75%, 75%)" opacity="0.65"></circle><circle r="14" cx="461" cy="143" fill="hsl(253, 75%, 75%)" opacity="0.47"></circle><circle r="9" cx="591" cy="511" fill="hsl(227, 75%, 75%)" opacity="0.54"></circle><circle r="9.5" cx="959" cy="704" fill="hsl(251, 75%, 75%)" opacity="0.62"></circle><circle r="9" cx="844" cy="270" fill="hsl(231, 75%, 75%)" opacity="0.28"></circle><circle r="16.5" cx="138" cy="241" fill="hsl(281, 75%, 75%)" opacity="0.32"></circle><circle r="13" cx="891" cy="656" fill="hsl(241, 75%, 75%)" opacity="0.16"></circle><circle r="9.5" cx="16" cy="128" fill="hsl(261, 75%, 75%)" opacity="0.74"></circle><circle r="10.5" cx="387" cy="310" fill="hsl(261, 75%, 75%)" opacity="0.16"></circle><circle r="10.5" cx="1166" cy="25" fill="hsl(244, 75%, 75%)" opacity="0.96"></circle><circle r="9.5" cx="245" cy="297" fill="hsl(282, 75%, 75%)" opacity="0.86"></circle><circle r="14.5" cx="192" cy="70" fill="hsl(293, 75%, 75%)" opacity="0.22"></circle><circle r="6" cx="793" cy="68" fill="hsl(223, 75%, 75%)" opacity="0.63"></circle><circle r="5" cx="1107" cy="12" fill="hsl(244, 75%, 75%)" opacity="0.71"></circle><circle r="7.5" cx="402" cy="657" fill="hsl(257, 75%, 75%)" opacity="0.87"></circle><circle r="16" cx="142" cy="381" fill="hsl(281, 75%, 75%)" opacity="0.99"></circle><circle r="7" cx="799" cy="108" fill="hsl(223, 75%, 75%)" opacity="0.86"></circle><circle r="11" cx="318" cy="455" fill="hsl(274, 75%, 75%)" opacity="0.57"></circle><circle r="12.5" cx="611" cy="683" fill="hsl(225, 75%, 75%)" opacity="0.14"></circle><circle r="16.5" cx="419" cy="539" fill="hsl(257, 75%, 75%)" opacity="0.47"></circle><circle r="11" cx="724" cy="180" fill="hsl(223, 75%, 75%)" opacity="0.25"></circle><circle r="6" cx="1278" cy="86" fill="hsl(234, 75%, 75%)" opacity="0.43"></circle></svg>